<svg width="1008" height="206" viewBox="0 0 1008 206" fill="none" xmlns="http://www.w3.org/2000/svg">
<path d="M221.04 129.616C220.336 129.808 219.216 130 217.68 130.192C216.208 130.384 214.736 130.48 213.264 130.48C211.792 130.48 210.48 130.352 209.328 130.096C208.24 129.904 207.312 129.52 206.544 128.944C205.776 128.368 205.2 127.568 204.816 126.544C204.432 125.52 204.24 124.176 204.24 122.512V71.824C204.944 71.696 206.064 71.536 207.6 71.344C209.136 71.088 210.608 70.96 212.016 70.96C213.488 70.96 214.768 71.088 215.856 71.344C217.008 71.536 217.968 71.92 218.736 72.496C219.504 73.072 220.08 73.872 220.464 74.896C220.848 75.92 221.04 77.264 221.04 78.928V129.616ZM261.81 100.432C261.81 98.448 261.234 97.008 260.082 96.112C258.994 95.152 257.49 94.672 255.57 94.672C254.29 94.672 253.01 94.832 251.73 95.152C250.514 95.472 249.458 95.952 248.562 96.592V129.904C247.922 130.096 246.898 130.288 245.49 130.48C244.146 130.672 242.738 130.768 241.266 130.768C239.858 130.768 238.578 130.672 237.426 130.48C236.338 130.288 235.41 129.904 234.642 129.328C233.874 128.752 233.266 127.984 232.818 127.024C232.434 126 232.242 124.688 232.242 123.088V94.288C232.242 92.56 232.594 91.152 233.298 90.064C234.066 88.976 235.09 87.984 236.37 87.088C238.546 85.552 241.266 84.304 244.53 83.344C247.858 82.384 251.538 81.904 255.57 81.904C262.802 81.904 268.37 83.504 272.274 86.704C276.178 89.84 278.13 94.224 278.13 99.856V129.904C277.49 130.096 276.466 130.288 275.058 130.48C273.714 130.672 272.306 130.768 270.834 130.768C269.426 130.768 268.146 130.672 266.994 130.48C265.906 130.288 264.978 129.904 264.21 129.328C263.442 128.752 262.834 127.984 262.386 127.024C262.002 126 261.81 124.688 261.81 123.088V100.432ZM327.571 116.08C327.571 120.944 325.747 124.752 322.099 127.504C318.451 130.256 313.075 131.632 305.971 131.632C303.283 131.632 300.787 131.44 298.483 131.056C296.179 130.672 294.195 130.096 292.531 129.328C290.931 128.496 289.651 127.472 288.691 126.256C287.795 125.04 287.347 123.6 287.347 121.936C287.347 120.4 287.667 119.12 288.307 118.096C288.947 117.008 289.715 116.112 290.611 115.408C292.467 116.432 294.579 117.36 296.947 118.192C299.379 118.96 302.163 119.344 305.299 119.344C307.283 119.344 308.787 119.056 309.811 118.48C310.899 117.904 311.443 117.136 311.443 116.176C311.443 115.28 311.059 114.576 310.291 114.064C309.523 113.552 308.243 113.136 306.451 112.816L303.571 112.24C298.003 111.152 293.843 109.456 291.091 107.152C288.403 104.784 287.059 101.424 287.059 97.072C287.059 94.704 287.571 92.56 288.595 90.64C289.619 88.72 291.059 87.12 292.915 85.84C294.771 84.56 296.979 83.568 299.539 82.864C302.163 82.16 305.043 81.808 308.179 81.808C310.547 81.808 312.755 82 314.803 82.384C316.915 82.704 318.739 83.216 320.275 83.92C321.811 84.624 323.027 85.552 323.923 86.704C324.819 87.792 325.267 89.104 325.267 90.64C325.267 92.112 324.979 93.392 324.403 94.48C323.891 95.504 323.219 96.368 322.387 97.072C321.875 96.752 321.107 96.432 320.083 96.112C319.059 95.728 317.939 95.408 316.723 95.152C315.507 94.832 314.259 94.576 312.979 94.384C311.763 94.192 310.643 94.096 309.619 94.096C307.507 94.096 305.875 94.352 304.723 94.864C303.571 95.312 302.995 96.048 302.995 97.072C302.995 97.776 303.315 98.352 303.955 98.8C304.595 99.248 305.811 99.664 307.603 100.048L310.579 100.72C316.723 102.128 321.075 104.08 323.635 106.576C326.259 109.008 327.571 112.176 327.571 116.08ZM335.461 84.016C336.101 83.824 337.093 83.632 338.437 83.44C339.845 83.248 341.285 83.152 342.757 83.152C344.165 83.152 345.413 83.248 346.501 83.44C347.653 83.632 348.613 84.016 349.381 84.592C350.149 85.168 350.725 85.968 351.109 86.992C351.557 87.952 351.781 89.232 351.781 90.832V111.472C351.781 114.096 352.421 115.984 353.701 117.136C354.981 118.224 356.837 118.768 359.269 118.768C360.741 118.768 361.925 118.64 362.821 118.384C363.781 118.128 364.517 117.872 365.029 117.616V84.016C365.669 83.824 366.661 83.632 368.005 83.44C369.413 83.248 370.853 83.152 372.325 83.152C373.733 83.152 374.981 83.248 376.069 83.44C377.221 83.632 378.181 84.016 378.949 84.592C379.717 85.168 380.293 85.968 380.677 86.992C381.125 87.952 381.349 89.232 381.349 90.832V120.016C381.349 123.216 380.005 125.616 377.317 127.216C375.077 128.624 372.389 129.68 369.253 130.384C366.181 131.152 362.821 131.536 359.173 131.536C355.717 131.536 352.517 131.152 349.573 130.384C346.693 129.616 344.197 128.432 342.085 126.832C339.973 125.232 338.341 123.184 337.189 120.688C336.037 118.128 335.461 115.056 335.461 111.472V84.016ZM407.656 129.904C407.016 130.096 405.992 130.288 404.584 130.48C403.24 130.672 401.832 130.768 400.36 130.768C398.952 130.768 397.672 130.672 396.52 130.48C395.432 130.288 394.504 129.904 393.736 129.328C392.968 128.752 392.36 127.984 391.912 127.024C391.528 126 391.336 124.688 391.336 123.088V94.288C391.336 92.816 391.592 91.568 392.104 90.544C392.68 89.456 393.48 88.496 394.504 87.664C395.528 86.832 396.776 86.096 398.248 85.456C399.784 84.752 401.416 84.144 403.144 83.632C404.872 83.12 406.664 82.736 408.52 82.48C410.376 82.16 412.232 82 414.088 82C417.16 82 419.592 82.608 421.384 83.824C423.176 84.976 424.072 86.896 424.072 89.584C424.072 90.48 423.944 91.376 423.688 92.272C423.432 93.104 423.112 93.872 422.728 94.576C421.384 94.576 420.008 94.64 418.6 94.768C417.192 94.896 415.816 95.088 414.472 95.344C413.128 95.6 411.848 95.888 410.632 96.208C409.48 96.464 408.488 96.784 407.656 97.168V129.904ZM449.366 119.632C450.454 119.632 451.638 119.536 452.918 119.344C454.262 119.088 455.254 118.768 455.894 118.384V110.704L448.982 111.28C447.19 111.408 445.718 111.792 444.566 112.432C443.414 113.072 442.838 114.032 442.838 115.312C442.838 116.592 443.318 117.648 444.278 118.48C445.302 119.248 446.998 119.632 449.366 119.632ZM448.598 81.904C452.054 81.904 455.19 82.256 458.006 82.96C460.886 83.664 463.318 84.752 465.302 86.224C467.35 87.632 468.918 89.456 470.006 91.696C471.094 93.872 471.638 96.464 471.638 99.472V120.976C471.638 122.64 471.158 124.016 470.198 125.104C469.302 126.128 468.214 127.024 466.934 127.792C462.774 130.288 456.918 131.536 449.366 131.536C445.974 131.536 442.902 131.216 440.15 130.576C437.462 129.936 435.126 128.976 433.142 127.696C431.222 126.416 429.718 124.784 428.63 122.8C427.606 120.816 427.094 118.512 427.094 115.888C427.094 111.472 428.406 108.08 431.03 105.712C433.654 103.344 437.718 101.872 443.222 101.296L455.798 99.952V99.28C455.798 97.424 454.966 96.112 453.302 95.344C451.702 94.512 449.366 94.096 446.294 94.096C443.862 94.096 441.494 94.352 439.19 94.864C436.886 95.376 434.806 96.016 432.95 96.784C432.118 96.208 431.414 95.344 430.838 94.192C430.262 92.976 429.974 91.728 429.974 90.448C429.974 88.784 430.358 87.472 431.126 86.512C431.958 85.488 433.206 84.624 434.87 83.92C436.726 83.216 438.902 82.704 441.398 82.384C443.958 82.064 446.358 81.904 448.598 81.904ZM511.185 100.432C511.185 98.448 510.609 97.008 509.457 96.112C508.369 95.152 506.865 94.672 504.945 94.672C503.665 94.672 502.385 94.832 501.105 95.152C499.889 95.472 498.833 95.952 497.937 96.592V129.904C497.297 130.096 496.273 130.288 494.865 130.48C493.521 130.672 492.113 130.768 490.641 130.768C489.233 130.768 487.953 130.672 486.801 130.48C485.713 130.288 484.785 129.904 484.017 129.328C483.249 128.752 482.641 127.984 482.193 127.024C481.809 126 481.617 124.688 481.617 123.088V94.288C481.617 92.56 481.969 91.152 482.673 90.064C483.441 88.976 484.465 87.984 485.745 87.088C487.921 85.552 490.641 84.304 493.905 83.344C497.233 82.384 500.913 81.904 504.945 81.904C512.177 81.904 517.745 83.504 521.649 86.704C525.553 89.84 527.505 94.224 527.505 99.856V129.904C526.865 130.096 525.841 130.288 524.433 130.48C523.089 130.672 521.681 130.768 520.209 130.768C518.801 130.768 517.521 130.672 516.369 130.48C515.281 130.288 514.353 129.904 513.585 129.328C512.817 128.752 512.209 127.984 511.761 127.024C511.377 126 511.185 124.688 511.185 123.088V100.432ZM563.89 94.768C562.29 94.768 560.754 95.024 559.282 95.536C557.874 96.048 556.626 96.816 555.538 97.84C554.514 98.8 553.682 100.016 553.042 101.488C552.402 102.96 552.082 104.688 552.082 106.672C552.082 110.64 553.202 113.616 555.442 115.6C557.746 117.584 560.53 118.576 563.794 118.576C565.714 118.576 567.378 118.352 568.786 117.904C570.194 117.456 571.442 116.976 572.53 116.464C573.81 117.36 574.77 118.352 575.41 119.44C576.05 120.464 576.37 121.712 576.37 123.184C576.37 125.808 575.122 127.856 572.626 129.328C570.13 130.736 566.674 131.44 562.258 131.44C558.226 131.44 554.578 130.864 551.314 129.712C548.05 128.496 545.234 126.832 542.866 124.72C540.562 122.544 538.77 119.952 537.49 116.944C536.21 113.936 535.57 110.608 535.57 106.96C535.57 102.736 536.242 99.056 537.586 95.92C538.994 92.72 540.882 90.096 543.25 88.048C545.618 86 548.338 84.464 551.41 83.44C554.546 82.416 557.842 81.904 561.298 81.904C565.906 81.904 569.458 82.736 571.954 84.4C574.45 86.064 575.698 88.208 575.698 90.832C575.698 92.048 575.41 93.2 574.834 94.288C574.258 95.312 573.586 96.208 572.818 96.976C571.73 96.464 570.418 95.984 568.882 95.536C567.346 95.024 565.682 94.768 563.89 94.768ZM607.82 131.536C604.044 131.536 600.524 131.024 597.26 130C594.06 128.912 591.244 127.312 588.812 125.2C586.444 123.088 584.556 120.432 583.148 117.232C581.804 114.032 581.132 110.288 581.132 106C581.132 101.776 581.804 98.16 583.148 95.152C584.556 92.08 586.38 89.584 588.62 87.664C590.86 85.68 593.42 84.24 596.3 83.344C599.18 82.384 602.124 81.904 605.132 81.904C608.524 81.904 611.596 82.416 614.348 83.44C617.164 84.464 619.564 85.872 621.548 87.664C623.596 89.456 625.164 91.6 626.252 94.096C627.404 96.592 627.98 99.312 627.98 102.256C627.98 104.432 627.372 106.096 626.156 107.248C624.94 108.4 623.244 109.136 621.068 109.456L597.356 113.008C598.06 115.12 599.5 116.72 601.676 117.808C603.852 118.832 606.348 119.344 609.164 119.344C611.788 119.344 614.252 119.024 616.556 118.384C618.924 117.68 620.844 116.88 622.316 115.984C623.34 116.624 624.204 117.52 624.908 118.672C625.612 119.824 625.964 121.04 625.964 122.32C625.964 125.2 624.62 127.344 621.932 128.752C619.884 129.84 617.58 130.576 615.02 130.96C612.46 131.344 610.06 131.536 607.82 131.536ZM605.132 93.808C603.596 93.808 602.252 94.064 601.1 94.576C600.012 95.088 599.116 95.76 598.412 96.592C597.708 97.36 597.164 98.256 596.78 99.28C596.46 100.24 596.268 101.232 596.204 102.256L612.62 99.568C612.428 98.288 611.724 97.008 610.508 95.728C609.292 94.448 607.5 93.808 605.132 93.808ZM677.98 71.824C678.428 72.528 678.812 73.488 679.132 74.704C679.516 75.856 679.708 77.072 679.708 78.352C679.708 80.848 679.164 82.64 678.076 83.728C677.052 84.752 675.644 85.264 673.852 85.264H653.692V96.112H674.716C675.228 96.816 675.644 97.744 675.964 98.896C676.348 100.048 676.54 101.264 676.54 102.544C676.54 104.976 675.996 106.736 674.908 107.824C673.884 108.848 672.476 109.36 670.684 109.36H653.884V129.616C653.18 129.808 652.06 130 650.524 130.192C649.052 130.384 647.58 130.48 646.108 130.48C644.636 130.48 643.324 130.352 642.172 130.096C641.084 129.904 640.156 129.52 639.388 128.944C638.62 128.368 638.044 127.568 637.66 126.544C637.276 125.52 637.084 124.176 637.084 122.512V80.752C637.084 78 637.884 75.824 639.484 74.224C641.084 72.624 643.26 71.824 646.012 71.824H677.98ZM704.648 119.632C705.736 119.632 706.92 119.536 708.2 119.344C709.544 119.088 710.536 118.768 711.176 118.384V110.704L704.264 111.28C702.472 111.408 701 111.792 699.848 112.432C698.696 113.072 698.12 114.032 698.12 115.312C698.12 116.592 698.6 117.648 699.56 118.48C700.584 119.248 702.28 119.632 704.648 119.632ZM703.88 81.904C707.336 81.904 710.472 82.256 713.288 82.96C716.168 83.664 718.6 84.752 720.584 86.224C722.632 87.632 724.2 89.456 725.288 91.696C726.376 93.872 726.92 96.464 726.92 99.472V120.976C726.92 122.64 726.44 124.016 725.48 125.104C724.584 126.128 723.496 127.024 722.216 127.792C718.056 130.288 712.2 131.536 704.648 131.536C701.256 131.536 698.184 131.216 695.432 130.576C692.744 129.936 690.408 128.976 688.424 127.696C686.504 126.416 685 124.784 683.912 122.8C682.888 120.816 682.376 118.512 682.376 115.888C682.376 111.472 683.688 108.08 686.312 105.712C688.936 103.344 693 101.872 698.504 101.296L711.08 99.952V99.28C711.08 97.424 710.248 96.112 708.584 95.344C706.984 94.512 704.648 94.096 701.576 94.096C699.144 94.096 696.776 94.352 694.472 94.864C692.168 95.376 690.088 96.016 688.232 96.784C687.4 96.208 686.696 95.344 686.12 94.192C685.544 92.976 685.256 91.728 685.256 90.448C685.256 88.784 685.64 87.472 686.408 86.512C687.24 85.488 688.488 84.624 690.152 83.92C692.008 83.216 694.184 82.704 696.68 82.384C699.24 82.064 701.64 81.904 703.88 81.904ZM776.258 116.08C776.258 120.944 774.434 124.752 770.786 127.504C767.138 130.256 761.762 131.632 754.658 131.632C751.97 131.632 749.474 131.44 747.17 131.056C744.866 130.672 742.882 130.096 741.218 129.328C739.618 128.496 738.338 127.472 737.378 126.256C736.482 125.04 736.034 123.6 736.034 121.936C736.034 120.4 736.354 119.12 736.994 118.096C737.634 117.008 738.402 116.112 739.298 115.408C741.154 116.432 743.266 117.36 745.634 118.192C748.066 118.96 750.85 119.344 753.986 119.344C755.97 119.344 757.474 119.056 758.498 118.48C759.586 117.904 760.13 117.136 760.13 116.176C760.13 115.28 759.746 114.576 758.978 114.064C758.21 113.552 756.93 113.136 755.138 112.816L752.258 112.24C746.69 111.152 742.53 109.456 739.778 107.152C737.09 104.784 735.746 101.424 735.746 97.072C735.746 94.704 736.258 92.56 737.282 90.64C738.306 88.72 739.746 87.12 741.602 85.84C743.458 84.56 745.666 83.568 748.226 82.864C750.85 82.16 753.73 81.808 756.866 81.808C759.234 81.808 761.442 82 763.49 82.384C765.602 82.704 767.426 83.216 768.962 83.92C770.498 84.624 771.714 85.552 772.61 86.704C773.506 87.792 773.954 89.104 773.954 90.64C773.954 92.112 773.666 93.392 773.09 94.48C772.578 95.504 771.906 96.368 771.074 97.072C770.562 96.752 769.794 96.432 768.77 96.112C767.746 95.728 766.626 95.408 765.41 95.152C764.194 94.832 762.946 94.576 761.666 94.384C760.45 94.192 759.33 94.096 758.306 94.096C756.194 94.096 754.562 94.352 753.41 94.864C752.258 95.312 751.682 96.048 751.682 97.072C751.682 97.776 752.002 98.352 752.642 98.8C753.282 99.248 754.498 99.664 756.29 100.048L759.266 100.72C765.41 102.128 769.762 104.08 772.322 106.576C774.946 109.008 776.258 112.176 776.258 116.08ZM800.468 113.968C800.468 115.632 800.98 116.816 802.004 117.52C803.092 118.224 804.596 118.576 806.516 118.576C807.476 118.576 808.468 118.512 809.492 118.384C810.516 118.192 811.412 117.968 812.18 117.712C812.756 118.416 813.236 119.216 813.62 120.112C814.068 120.944 814.292 121.968 814.292 123.184C814.292 125.616 813.364 127.6 811.508 129.136C809.716 130.672 806.516 131.44 801.908 131.44C796.276 131.44 791.924 130.16 788.852 127.6C785.844 125.04 784.34 120.88 784.34 115.12V74.032C785.044 73.84 786.036 73.648 787.316 73.456C788.66 73.2 790.068 73.072 791.54 73.072C794.356 73.072 796.532 73.584 798.068 74.608C799.668 75.568 800.468 77.648 800.468 80.848V86.992H813.044C813.428 87.696 813.78 88.592 814.1 89.68C814.484 90.704 814.676 91.856 814.676 93.136C814.676 95.376 814.164 97.008 813.14 98.032C812.18 98.992 810.868 99.472 809.204 99.472H800.468V113.968ZM836.218 73.552C837.306 72.912 838.938 72.304 841.114 71.728C843.354 71.152 845.594 70.864 847.834 70.864C851.034 70.864 853.85 71.344 856.282 72.304C858.778 73.2 860.378 74.64 861.082 76.624C862.234 79.952 863.482 83.824 864.826 88.24C866.17 92.656 867.514 97.232 868.858 101.968C870.202 106.64 871.514 111.28 872.794 115.888C874.074 120.432 875.194 124.464 876.154 127.984C875.386 128.88 874.234 129.584 872.698 130.096C871.162 130.672 869.338 130.96 867.226 130.96C865.69 130.96 864.378 130.832 863.29 130.576C862.266 130.32 861.402 129.936 860.698 129.424C860.058 128.912 859.514 128.24 859.066 127.408C858.682 126.576 858.33 125.616 858.01 124.528L856.282 117.904H838.906C838.394 119.824 837.882 121.808 837.37 123.856C836.858 125.904 836.346 127.888 835.834 129.808C834.938 130.128 833.978 130.384 832.954 130.576C831.994 130.832 830.81 130.96 829.402 130.96C826.138 130.96 823.706 130.416 822.106 129.328C820.57 128.176 819.802 126.608 819.802 124.624C819.802 123.728 819.93 122.832 820.186 121.936C820.442 121.04 820.73 119.984 821.05 118.768C821.498 117.04 822.106 114.896 822.874 112.336C823.706 109.776 824.602 107.024 825.562 104.08C826.522 101.072 827.546 98 828.634 94.864C829.722 91.728 830.746 88.784 831.706 86.032C832.666 83.216 833.53 80.72 834.298 78.544C835.13 76.368 835.77 74.704 836.218 73.552ZM847.738 85.936C846.842 88.624 845.818 91.632 844.666 94.96C843.578 98.224 842.586 101.552 841.69 104.944H853.594C852.698 101.488 851.77 98.128 850.81 94.864C849.914 91.536 849.082 88.56 848.314 85.936H847.738ZM905.813 98.8C908.501 98.8 910.549 98.192 911.957 96.976C913.429 95.696 914.165 93.776 914.165 91.216C914.165 88.784 913.397 86.928 911.861 85.648C910.389 84.304 908.213 83.632 905.333 83.632C904.309 83.632 903.445 83.664 902.741 83.728C902.101 83.728 901.429 83.792 900.725 83.92V98.8H905.813ZM900.821 129.616C900.117 129.808 898.997 130 897.461 130.192C895.989 130.384 894.517 130.48 893.045 130.48C891.573 130.48 890.261 130.352 889.109 130.096C888.021 129.904 887.093 129.52 886.325 128.944C885.557 128.368 884.981 127.568 884.597 126.544C884.213 125.52 884.021 124.176 884.021 122.512V77.296C884.021 75.952 884.373 74.928 885.077 74.224C885.845 73.456 886.869 72.848 888.149 72.4C890.325 71.632 892.789 71.088 895.541 70.768C898.357 70.384 901.173 70.192 903.989 70.192C912.821 70.192 919.573 72.08 924.245 75.856C928.917 79.632 931.253 84.752 931.253 91.216C931.253 94.352 930.741 97.2 929.717 99.76C928.757 102.256 927.285 104.432 925.301 106.288C923.381 108.08 920.917 109.488 917.909 110.512C914.965 111.472 911.541 111.952 907.637 111.952H900.821V129.616ZM956.603 129.616C955.899 129.808 954.779 130 953.243 130.192C951.771 130.384 950.299 130.48 948.827 130.48C947.355 130.48 946.043 130.352 944.891 130.096C943.803 129.904 942.875 129.52 942.107 128.944C941.339 128.368 940.763 127.568 940.379 126.544C939.995 125.52 939.803 124.176 939.803 122.512V71.824C940.507 71.696 941.627 71.536 943.163 71.344C944.699 71.088 946.171 70.96 947.579 70.96C949.051 70.96 950.331 71.088 951.419 71.344C952.571 71.536 953.531 71.92 954.299 72.496C955.067 73.072 955.643 73.872 956.027 74.896C956.411 75.92 956.603 77.264 956.603 78.928V129.616Z" fill="url(#paint0_linear_660_2)"/>
<path d="M158.333 160.542H55.6667C48.6083 160.542 42.8333 154.767 42.8333 147.708V80.6542C42.8333 76.4833 44.7583 72.6333 48.2875 70.0667L107 29L165.713 70.0667C169.242 72.3125 171.167 76.4833 171.167 80.6542V147.708C171.167 154.767 165.392 160.542 158.333 160.542Z" fill="#78909C"/>
<path d="M74.9167 32.2084H139.083V131.667H74.9167V32.2084Z" fill="#AED581"/>
<path d="M71.7083 29V134.875H142.292V29H71.7083ZM135.875 128.458H78.125V35.4167H135.875V128.458Z" fill="#558B2F"/>
<path d="M139.083 38.625C139.083 44.0792 138.121 48.25 132.667 48.25C127.212 48.25 123.042 44.0792 123.042 38.625C123.042 33.1709 127.212 32.2084 132.667 32.2084C138.121 32.2084 139.083 33.1709 139.083 38.625ZM81.3333 32.2084C86.7875 32.2084 90.9583 33.1709 90.9583 38.625C90.9583 44.0792 86.7875 48.25 81.3333 48.25C75.8792 48.25 74.9167 44.0792 74.9167 38.625C74.9167 33.1709 75.8792 32.2084 81.3333 32.2084Z" fill="#558B2F"/>
<path d="M100.583 54.6667C100.583 56.3685 101.259 58.0006 102.463 59.2039C103.666 60.4073 105.298 61.0833 107 61.0833C108.702 61.0833 110.334 60.4073 111.537 59.2039C112.741 58.0006 113.417 56.3685 113.417 54.6667C113.417 52.9649 112.741 51.3328 111.537 50.1294C110.334 48.926 108.702 48.25 107 48.25C105.298 48.25 103.666 48.926 102.463 50.1294C101.259 51.3328 100.583 52.9649 100.583 54.6667Z" fill="#558B2F"/>
<path d="M87.75 93.1666C87.75 98.272 89.7781 103.168 93.3882 106.778C96.9983 110.389 101.895 112.417 107 112.417C112.105 112.417 117.002 110.389 120.612 106.778C124.222 103.168 126.25 98.272 126.25 93.1666C126.25 88.0612 124.222 83.1649 120.612 79.5548C117.002 75.9447 112.105 73.9166 107 73.9166C101.895 73.9166 96.9983 75.9447 93.3882 79.5548C89.7781 83.1649 87.75 88.0612 87.75 93.1666Z" fill="#558B2F"/>
<path d="M158.333 160.542H55.6667C48.6083 160.542 42.8333 154.767 42.8333 147.708V83.5416L107 125.25L171.167 83.5416V147.708C171.167 154.767 165.392 160.542 158.333 160.542Z" fill="#CFD8DC"/>
<defs>
<linearGradient id="paint0_linear_660_2" x1="587.394" y1="91.5" x2="587.49" y2="130" gradientUnits="userSpaceOnUse">
<stop stop-color="#558B2F"/>
<stop offset="1" stop-color="#94AD76"/>
</linearGradient>
</defs>
</svg>
